<svg width="14" height="18" viewBox="0 0 14 18" fill="none" xmlns="http://www.w3.org/2000/svg">
<path d="M11.8211 3.60921C11.5974 3.73244 11.5676 4.10815 11.7544 4.44822C11.9412 4.78863 12.2748 4.96494 12.4985 4.84176C12.7224 4.7192 12.7525 4.34345 12.5651 4.00275C12.3786 3.66237 12.0453 3.48602 11.8211 3.60921Z" fill="white"/>
<path d="M3.8216 11.5699C3.65637 11.2065 3.55435 10.8037 3.52918 10.311C3.52397 10.2111 3.52211 10.1066 3.52366 9.99884C3.5252 9.89098 3.43886 9.80249 3.33103 9.80067C3.22353 9.79975 3.13472 9.88578 3.13321 9.99389C3.13198 10.1097 3.13349 10.2219 3.13933 10.3312C3.16633 10.8667 3.28002 11.3229 3.46649 11.7318C3.65328 12.1401 3.91101 12.4992 4.22007 12.8479C4.40042 13.0512 4.47906 13.289 4.49165 13.5271C4.50455 13.7701 4.4425 14.0113 4.35127 14.1818C4.30089 14.2767 4.33682 14.3947 4.43209 14.4454C4.52702 14.4961 4.6456 14.4601 4.69598 14.3649C4.82166 14.1286 4.89721 13.8267 4.88153 13.5072C4.86617 13.1963 4.75803 12.8651 4.51228 12.5886C4.21947 12.2587 3.98751 11.9324 3.8216 11.5699Z" fill="white"/>
<path d="M6.79605 12.9229C7.06886 12.9088 7.2836 12.8126 7.42862 12.7201C7.57483 12.6283 7.65348 12.5401 7.66237 12.53C7.73367 12.4489 7.72601 12.3257 7.64458 12.2544C7.56439 12.1838 7.44152 12.1912 7.37054 12.271H7.36991L7.36776 12.2738C7.35546 12.287 7.29281 12.3496 7.19114 12.4083C7.08852 12.4683 6.94933 12.5238 6.7764 12.5328C6.66119 12.5383 6.53066 12.5242 6.3804 12.4728C6.11803 12.3835 5.88885 12.2203 5.69197 12.0203C5.39704 11.7199 5.17894 11.3374 5.03821 11.0308C4.96754 10.8775 4.91625 10.7429 4.88278 10.6483C4.8659 10.601 4.8536 10.5635 4.8459 10.538C4.84189 10.5254 4.83883 10.5159 4.83732 10.5098L4.83514 10.503L4.83454 10.5012C4.80537 10.3977 4.69751 10.3374 4.59365 10.3669C4.48984 10.3955 4.4299 10.5037 4.45879 10.6075V10.6072C4.46189 10.6164 4.58476 11.0526 4.86464 11.5491C5.00505 11.7973 5.18505 12.0609 5.41392 12.2941C5.64156 12.5261 5.91989 12.7282 6.25415 12.8422C6.44952 12.9094 6.63261 12.9309 6.79605 12.9229Z" fill="white"/>
<path d="M6.36779 14.796C6.27624 14.7179 6.19419 14.655 6.1134 14.6083C6.07223 14.5849 6.03166 14.5659 5.98807 14.5511C5.94504 14.537 5.89712 14.5278 5.84491 14.5302C5.80835 14.5321 5.76996 14.5404 5.73399 14.5567C5.6698 14.5843 5.62033 14.6347 5.58964 14.6857C5.54324 14.7638 5.52636 14.843 5.5156 14.9321C5.5058 15.0215 5.50516 15.1222 5.51128 15.2393C5.51652 15.3468 5.60838 15.4295 5.71621 15.4243C5.82371 15.4184 5.90668 15.3272 5.90116 15.2193C5.89716 15.1404 5.89684 15.0734 5.89993 15.0208C5.90176 14.988 5.90514 14.9628 5.90883 14.9413C5.92018 14.9477 5.93312 14.9548 5.94722 14.964C6.02432 15.0138 6.13583 15.1066 6.27069 15.2362C6.40646 15.3655 6.56776 15.5324 6.75486 15.7321C6.82855 15.8101 6.95237 15.8147 7.0307 15.7406C7.10903 15.6669 7.11367 15.5434 7.03959 15.4648C6.76991 15.1769 6.54997 14.9538 6.36779 14.796Z" fill="white"/>
<path d="M8.0771 13.3013C8.0089 13.3898 7.93581 13.4362 7.84946 13.4685C7.76344 13.5001 7.66328 13.513 7.55946 13.5185C7.48697 13.5219 7.41293 13.5219 7.33952 13.5259C7.29435 13.5281 7.24949 13.5317 7.2028 13.54C7.16838 13.5468 7.13182 13.5564 7.09434 13.5726C7.06608 13.5846 7.03686 13.6012 7.00955 13.6239C6.96778 13.6571 6.93185 13.7057 6.91248 13.7588C6.89254 13.8119 6.88699 13.8663 6.88977 13.9179C6.89434 14.0012 6.91895 14.0758 6.95087 14.1462C7.00926 14.2691 7.09434 14.3815 7.19113 14.4909C7.33551 14.6543 7.5063 14.8079 7.65255 14.9308C7.72568 14.9929 7.79174 15.0463 7.84454 15.089C7.87126 15.1102 7.89432 15.1287 7.91215 15.144C7.93029 15.1584 7.94379 15.1701 7.94931 15.175C8.02918 15.2466 8.15237 15.2404 8.2249 15.1606C8.29711 15.0801 8.29064 14.9572 8.21076 14.8847C8.18802 14.8645 8.16133 14.8429 8.12505 14.814C8.06332 14.7637 7.97821 14.6955 7.88451 14.6156C7.7441 14.4967 7.58526 14.3517 7.46577 14.2132C7.40649 14.1437 7.35671 14.0768 7.32444 14.0196C7.30201 13.9797 7.28974 13.9462 7.28359 13.9229C7.30292 13.9195 7.32813 13.9173 7.35946 13.9158C7.41845 13.9127 7.49463 13.9124 7.57946 13.9078C7.70015 13.9017 7.84029 13.8876 7.98372 13.835C8.1272 13.7834 8.2731 13.6888 8.38739 13.5379C8.4525 13.4522 8.43626 13.3296 8.35055 13.2648C8.26483 13.1993 8.14221 13.2157 8.0771 13.3013Z" fill="white"/>
<path d="M7.21971 0.679727L7.22006 0.68043L7.21936 0.678711L7.21971 0.679727Z" fill="white"/>
<path d="M13.7307 3.74254C13.578 3.35884 13.3381 3.00739 13.0339 2.73306C12.8816 2.59634 12.7114 2.47835 12.5224 2.39236C12.335 2.30633 12.1255 2.25167 11.904 2.25107H11.8973C11.6632 2.25107 11.4229 2.31586 11.2066 2.4483C10.8908 2.64123 10.5879 2.84584 10.297 3.06026C10.3317 2.98837 10.3735 2.90789 10.4227 2.82004C10.5099 2.66089 10.615 2.47593 10.7059 2.26L10.7084 2.25567L10.7102 2.2511C10.7505 2.154 10.7705 2.05142 10.7711 1.94633C10.7708 1.79488 10.729 1.66094 10.6734 1.54942C10.5772 1.35894 10.4393 1.21396 10.2928 1.08986C10.071 0.904303 9.80862 0.754397 9.54073 0.642248C9.4065 0.58635 9.27009 0.539944 9.134 0.506756L9.13 0.505526L9.13369 0.506158C9.13182 0.505842 9.13028 0.505842 9.12848 0.505244C8.99454 0.472654 8.85877 0.45149 8.71712 0.451174C8.60898 0.45149 8.48885 0.464076 8.36324 0.510483C8.29996 0.534424 8.23358 0.568244 8.17062 0.616162C8.1067 0.664713 8.04771 0.726448 8.00102 0.800487C7.96661 0.855787 7.93957 0.907994 7.91285 0.960869C7.86648 1.05333 7.81821 1.15504 7.76572 1.25643L7.76386 1.26012L7.76541 1.25674C7.69014 1.40422 7.59736 1.55445 7.52392 1.63615C7.40351 1.76887 7.28338 0.791944 7.2201 0.680428C7.15221 0.559385 7.0594 0.458311 6.95284 0.369858C6.77126 0.219916 6.56486 0.138811 6.36299 0.0887482C5.65086 -0.085451 4.61372 -0.0485721 4.16305 0.626358C4.16291 0.626358 4.16291 0.626674 4.16291 0.626674L4.16245 0.627307L4.16273 0.62699C4.0715 0.771061 4.01684 0.918823 3.97996 1.05646C3.94368 1.19378 3.92402 1.32558 3.92374 1.45432C3.92374 1.54464 3.93018 1.62821 3.93478 1.71912C3.94586 1.91698 3.95813 2.11083 3.91727 2.30159C3.70651 2.01928 3.57042 1.68839 3.37534 1.39593C3.32127 1.31359 3.25461 1.25249 3.18796 1.20577C3.09022 1.13851 2.98736 1.09889 2.88751 1.074C2.78739 1.04883 2.68385 1.03804 2.57754 1.03772C2.39381 1.03804 2.19659 1.07154 1.99384 1.14221C1.79109 1.21319 1.58125 1.32221 1.37759 1.47492C1.14257 1.65155 0.966223 1.83436 0.843352 2.03004C0.720762 2.22607 0.65502 2.43771 0.65502 2.64876C0.655336 2.80977 0.694958 2.95841 0.759188 3.08378C1.05991 3.66808 1.40986 4.31446 1.40895 4.99094V4.99368C1.40863 5.19674 1.37024 5.35923 1.29342 5.49107L1.21724 5.62136L1.25261 5.64192C0.775782 6.40995 0.375528 7.40624 0.170286 8.74046C0.126375 9.02308 0.105774 9.31277 0.105774 9.60646C0.10609 10.5475 0.318364 11.5315 0.694712 12.4841C1.26059 13.9117 2.19606 15.2736 3.392 16.2956C3.99079 16.8059 4.65527 17.2314 5.37415 17.53C6.08473 17.8256 6.84874 17.9958 7.6463 18.0003H7.66964C8.11479 18.0003 8.56915 17.9475 9.02811 17.8363L9.03304 17.8351C9.03304 17.8351 9.03979 17.8332 9.0413 17.8329C9.62222 17.6738 10.1608 17.3395 10.6455 16.8919C11.3721 16.2182 11.9865 15.2818 12.428 14.1992C12.8688 13.1157 13.1346 11.8835 13.1349 10.6141C13.1349 9.29185 12.8396 7.92909 12.142 6.68209C12.1905 6.64152 12.2384 6.60067 12.2879 6.56137C12.6476 6.27323 13.0249 6.01335 13.3622 5.7359C13.548 5.5823 13.6863 5.39091 13.773 5.18539C13.8596 4.97986 13.8946 4.76481 13.8946 4.55591C13.8941 4.27371 13.8315 3.99935 13.7307 3.74254ZM1.56796 2.48264C1.61985 2.39999 1.71818 2.28724 1.8902 2.15854C2.02538 2.05687 2.15686 1.99021 2.27513 1.94901C2.39374 1.90784 2.49907 1.89216 2.57743 1.89248C2.6275 1.89216 2.66529 1.89859 2.68677 1.90478C2.75715 2.01506 2.83485 2.1527 2.91595 2.30138C3.05236 2.54962 3.19583 2.82148 3.35868 3.05161C3.42902 3.15022 3.50303 3.24114 3.59088 3.32256C3.39584 3.52872 3.14609 3.74711 2.86863 3.99995C2.66775 4.18276 2.45302 4.38611 2.23579 4.61652C2.18632 4.26141 2.07695 3.92103 1.95749 3.61935C1.87698 3.41597 1.79099 3.23038 1.71294 3.0719C1.63521 2.91401 1.5655 2.78249 1.51972 2.6934C1.5142 2.68237 1.50956 2.66915 1.50956 2.64577C1.50988 2.61659 1.51663 2.56621 1.56796 2.48264ZM12.9851 4.85337C12.9485 4.93817 12.8975 5.01006 12.818 5.0764C12.4241 5.40233 11.8813 5.75752 11.3636 6.2232C11.1047 6.45635 10.8518 6.71873 10.6282 7.02286C10.4045 7.32668 10.2107 7.67325 10.0724 8.06953C10.0082 8.25354 10.1047 8.45383 10.2884 8.51802C10.4715 8.58253 10.6724 8.48578 10.7369 8.30206C10.8503 7.97795 11.0079 7.69533 11.1953 7.43971C11.2684 7.34018 11.3464 7.24494 11.4278 7.1534C12.0241 8.24394 12.2798 9.43782 12.28 10.6163C12.2813 12.1449 11.8472 13.6435 11.1873 14.8072C10.8577 15.3891 10.4727 15.8871 10.0648 16.264C9.65864 16.6403 9.23195 16.8938 8.82059 17.0068C8.43014 17.1011 8.04613 17.1451 7.66947 17.1451C6.75983 17.1451 5.89007 16.8883 5.08857 16.4434C3.88799 15.7768 2.84779 14.6837 2.11541 13.4444C0.822961 11.2626 0.580911 8.60588 1.83033 6.3448C2.35686 5.39369 3.00539 4.82475 3.57956 4.30557C3.86651 4.04565 4.13595 3.79928 4.35465 3.51205C4.46399 3.36795 4.55986 3.21372 4.63295 3.04356C4.70671 2.87337 4.75709 2.68841 4.77611 2.49027C4.79393 2.31639 4.79945 2.16093 4.79945 2.02329C4.79945 1.45742 4.6603 1.0212 5.34813 0.907221C5.47315 0.886022 5.6111 0.87435 5.74568 0.87435C5.89559 0.874033 6.0412 0.889397 6.15884 0.91826C6.2771 0.946842 6.36439 0.990752 6.40553 1.0264C6.43903 1.05403 6.45742 1.07432 6.46663 1.08662C6.47957 1.10505 6.47584 1.10076 6.47893 1.11028C6.48139 1.11918 6.48449 1.14808 6.48414 1.20457C6.48414 1.22148 6.48414 1.2399 6.48414 1.2611C6.48414 1.32867 6.48938 1.40795 6.50165 1.49887C6.57139 2.01007 6.86632 2.56551 7.45983 2.56308C7.57535 2.56368 7.68592 2.53664 7.78116 2.49424C7.94948 2.41929 8.07454 2.305 8.17839 2.18519C8.3335 2.00455 8.44565 1.80149 8.53719 1.62515C8.58205 1.53697 8.62164 1.45527 8.65395 1.38953C8.66963 1.35757 8.68404 1.32931 8.69631 1.30628L8.71782 1.306C8.79338 1.30477 8.92887 1.32903 9.07325 1.37849C9.29136 1.45162 9.535 1.57941 9.70241 1.71089C9.78598 1.776 9.85017 1.8421 9.88368 1.8903C9.89964 1.91272 9.90857 1.93023 9.9125 1.94067C9.82497 2.14648 9.69963 2.35327 9.58165 2.57876C9.35675 3.00883 9.25199 3.47454 9.47351 3.92553C8.87786 4.46226 8.35311 5.04655 7.90983 5.6671C7.06102 6.85664 6.50864 8.17978 6.324 9.54961C6.29851 9.74223 6.43337 9.91949 6.62631 9.94502C6.81861 9.97114 6.99587 9.83628 7.02199 9.64366C7.18941 8.39881 7.69327 7.18226 8.48309 6.07632C9.27231 4.97005 10.3482 3.97499 11.6522 3.17782C11.7392 3.1253 11.816 3.10624 11.9011 3.10561C12.0077 3.10561 12.1324 3.14154 12.2652 3.22142C12.4636 3.3394 12.6676 3.5535 12.8111 3.80178C12.957 4.04938 13.0412 4.32768 13.0397 4.55563C13.0398 4.66876 13.0207 4.76829 12.9851 4.85337Z" fill="white"/>
<path d="M13.0397 2.73749L13.0345 2.73303C13.0345 2.73303 13.0349 2.7337 13.0352 2.7337L13.0397 2.73749Z" fill="white"/>
</svg>
