<svg width="56" height="56" viewBox="0 0 56 56" fill="none" xmlns="http://www.w3.org/2000/svg">
<g id="medical-cardiogram-svgrepo-com 1">
<path id="Vector" d="M27.6698 49.2209C26.8802 48.8053 24.2686 46.9981 21.7906 45.1521C18.8826 42.9865 16.7522 41.1553 14.1502 38.5853C12.3178 36.7757 11.1294 35.4805 10.079 34.1485C9.86702 33.8805 9.66182 33.6225 9.62382 33.5785C9.56382 33.5065 9.58382 33.4825 9.82382 33.3465C10.395 33.0225 10.5062 32.7649 11.7218 28.9273C12.8106 25.4901 12.7066 25.7917 12.7538 25.9369C12.7938 26.0049 12.9818 26.9417 13.2146 28.0201C13.883 31.1385 13.9662 31.4221 14.3146 31.7717C14.5546 32.0117 14.9342 32.1861 15.341 32.2401C15.645 32.2801 16.1694 32.1321 16.4582 31.9201C16.7782 31.6881 17.2294 30.9937 18.6014 28.6189C18.8934 28.1137 19.1462 27.7001 19.163 27.7001C19.163 27.7001 19.435 28.1577 19.7294 28.7169C20.8394 30.8229 22.0778 33.1301 22.2978 33.5029C22.6698 34.1353 23.1178 34.3933 23.825 34.3861C24.3666 34.3821 24.8158 34.1621 25.1038 33.7649C25.2878 33.5089 25.675 32.3053 26.7166 28.7293C27.7054 25.3349 28.055 24.2077 28.0958 24.2809C28.1438 24.3689 28.6062 26.5625 29.3882 30.4205C30.1054 33.9597 30.6402 36.5237 30.8182 37.2757C30.9262 37.7353 30.9702 37.8421 31.1502 38.0601C31.2822 38.2241 31.4582 38.3641 31.6438 38.4601C31.9078 38.5961 31.9718 38.6081 32.4254 38.6081C32.853 38.6077 32.955 38.6081 33.1918 38.4801C33.6342 38.2721 33.763 38.1001 34.1554 37.1785C34.4274 36.5425 35.3014 34.3625 35.7946 33.0941C35.8386 32.9821 35.9106 33.0941 36.539 34.3441C37.297 35.8381 37.5954 36.3713 37.7618 36.5317C37.8218 36.5877 38.0098 36.7037 38.1802 36.7837C38.765 37.0597 39.5618 36.9517 40.0046 36.5277C40.2246 36.3197 40.845 35.0805 42.3274 31.9001C42.803 30.8801 43.359 29.7117 43.5634 29.3037L43.9354 28.5617L44.0234 28.7337C44.0714 28.8257 44.443 29.7133 44.8494 30.7029C45.731 32.8505 45.8318 33.0581 46.1218 33.3257L46.3458 33.5337L46.2258 33.7017C45.9898 34.0337 44.901 35.3429 44.2626 36.0621C43.4438 36.9857 41.127 39.3049 40.0258 40.3045C37.9582 42.1801 35.8122 43.9485 33.6798 45.5333C31.6854 47.0157 28.4714 49.1801 28.0314 49.3369C27.9834 49.3369 27.8298 49.2969 27.6698 49.2209ZM38.2578 30.3425C37.4802 28.7885 37.0262 27.9505 36.871 27.7837C36.711 27.6077 36.2822 27.3917 35.9466 27.3125C35.5506 27.2205 35.0354 27.3645 34.5718 27.7005C34.3318 27.8765 34.1498 28.2285 33.5542 29.6889C33.1058 30.7877 32.997 31.0141 32.9446 30.9569C32.8966 30.9049 32.8926 30.8729 31.5154 24.0517C30.3862 18.4549 30.0686 16.9513 29.8974 16.3961C29.7774 16.0081 29.5614 15.7745 29.1222 15.5581C28.8822 15.4421 28.7942 15.4221 28.3838 15.4261C27.973 15.4273 27.8838 15.4261 27.6294 15.5661C27.0782 15.8341 27.0342 15.9061 26.609 17.2617C26.1146 18.8365 25.9926 19.2461 24.6638 23.7809C24.0438 25.8973 23.4894 27.7805 23.4318 27.9657L23.3278 28.3017L23.2158 28.1377C23.0758 27.9257 22.8878 27.5805 21.9002 25.7177C20.717 23.4833 20.4458 23.0729 19.9894 22.8241C19.7574 22.6961 19.6894 22.6841 19.2654 22.6841C18.717 22.6861 18.5382 22.7481 18.2082 23.0521C17.9122 23.3241 17.6666 23.6737 17.1066 24.6129C16.521 25.5945 16.2742 25.9561 16.225 25.9045C16.185 25.8645 15.949 24.7489 15.6638 23.3877C15.0778 20.6097 14.6938 18.8721 14.583 18.4981C14.491 18.1901 14.203 17.9193 13.7294 17.6889C13.4614 17.5609 13.3494 17.5329 13.0642 17.5329C12.7682 17.5313 12.6682 17.5729 12.3534 17.7089C11.7346 18.0089 11.7426 17.9929 11.1842 19.6773C10.2558 22.4757 8.53062 27.8449 7.98342 29.6389C7.86742 30.0149 7.76742 30.3337 7.76342 30.3437C7.76342 30.3437 7.69142 30.3837 7.61542 30.3837C7.35942 30.3837 7.05862 29.9297 6.25302 28.3369C5.09582 26.0493 4.30622 23.6809 4.06382 21.7685C3.97982 21.1097 3.97982 18.5441 4.06302 17.8957C4.34302 15.7185 5.38542 13.3297 6.85462 11.4989C9.04102 8.77454 12.4302 6.98334 15.9502 6.69214C17.3266 6.57614 19.411 6.81614 20.8702 7.25454C22.2762 7.67694 23.9054 8.56374 25.2466 9.63734C25.9402 10.1925 26.8534 11.1173 27.3258 11.7441C27.7426 12.2973 27.9402 12.5281 27.9966 12.5281C27.9966 12.5281 28.1606 12.3561 28.3166 12.1481C30.309 9.49774 32.7806 7.83374 35.9074 7.03814C37.0074 6.75814 37.379 6.72214 39.0202 6.72214C40.6006 6.72254 40.8206 6.76214 41.947 7.01814C45.8346 7.96414 48.9298 10.4337 50.6658 13.9749C51.1122 14.8857 51.3986 15.6645 51.6218 16.5733C52.4602 19.9865 51.8978 23.8157 49.9762 27.8093C49.5842 28.6201 48.9866 29.7081 48.635 30.2453L48.411 30.5853L48.319 30.3693C48.267 30.2493 47.789 29.0945 47.2546 27.8001C46.2478 25.3641 45.6582 23.9905 45.395 23.4693C45.123 22.9285 44.6426 22.6973 43.8762 22.7373C43.4014 22.7773 43.1074 22.8733 42.8446 23.1293C42.6086 23.3613 42.1302 24.3489 39.8182 29.3913C39.293 30.5369 38.855 31.4825 38.8454 31.4921C38.8454 31.4921 38.5694 30.9945 38.2554 30.3645L38.2578 30.3425Z" fill="#00A8B5"/>
</g>
</svg>
