<svg width="24" height="24" viewBox="0 0 24 24" fill="none" xmlns="http://www.w3.org/2000/svg">
<g id="Dashboard icon">
<path id="Vector" d="M18.4146 3.47701H15.2728C14.116 3.47701 13.1783 4.41476 13.1783 5.57155V8.71337C13.1783 9.87016 14.116 10.8079 15.2728 10.8079H18.4146C19.5714 10.8079 20.5092 9.87016 20.5092 8.71337V5.57155C20.5092 4.41476 19.5714 3.47701 18.4146 3.47701Z" stroke="#00A8B5" stroke-width="2" stroke-linecap="round" stroke-linejoin="round"/>
<path id="Vector_2" d="M8.90182 3.47696H5.76C4.60321 3.47696 3.66545 4.41472 3.66545 5.57151V8.71332C3.66545 9.87011 4.60321 10.8079 5.76 10.8079H8.90182C10.0586 10.8079 10.9964 9.87011 10.9964 8.71332V5.57151C10.9964 4.41472 10.0586 3.47696 8.90182 3.47696Z" stroke="#00A8B5" stroke-width="2" stroke-linecap="round" stroke-linejoin="round"/>
<path id="Vector_3" d="M18.4146 12.9897H15.2728C14.116 12.9897 13.1783 13.9274 13.1783 15.0842V18.2261C13.1783 19.3829 14.116 20.3206 15.2728 20.3206H18.4146C19.5714 20.3206 20.5092 19.3829 20.5092 18.2261V15.0842C20.5092 13.9274 19.5714 12.9897 18.4146 12.9897Z" stroke="#00A8B5" stroke-width="2" stroke-linecap="round" stroke-linejoin="round"/>
<path id="Vector_4" d="M8.90167 12.9897H5.75985C4.60307 12.9897 3.66531 13.9274 3.66531 15.0842V18.2261C3.66531 19.3829 4.60307 20.3206 5.75985 20.3206H8.90167C10.0585 20.3206 10.9962 19.3829 10.9962 18.2261V15.0842C10.9962 13.9274 10.0585 12.9897 8.90167 12.9897Z" stroke="#00A8B5" stroke-width="2" stroke-linecap="round" stroke-linejoin="round"/>
</g>
</svg>
