<svg width="24" height="24" viewBox="0 0 24 24" fill="none" xmlns="http://www.w3.org/2000/svg">
<g id="doctor-stethoscope-svgrepo-com 1" clip-path="url(#clip0_278_432)">
<path id="Vector" d="M12.6039 2.40401C11.9401 2.40401 11.4019 1.86585 11.4019 1.202C11.4019 0.538155 11.9401 0 12.6039 0C13.2678 0 13.8059 0.538155 13.8059 1.202C13.8059 1.86585 13.2678 2.40401 12.6039 2.40401Z" fill="white"/>
<path id="Vector_2" d="M6.23544 2.40401C5.57159 2.40401 5.03343 1.86585 5.03343 1.202C5.03343 0.538155 5.57159 0 6.23544 0C6.89928 0 7.43744 0.538155 7.43744 1.202C7.43744 1.86585 6.89928 2.40401 6.23544 2.40401Z" fill="white"/>
<path id="Vector_3" d="M2.65411 2.29528C3.26483 1.23752 4.35858 0.606061 5.58002 0.606061V1.79817C4.78953 1.79817 4.08178 2.20682 3.68647 2.89133C3.29117 3.57596 3.29117 4.39327 3.68635 5.0779L7.51564 11.7103C7.91083 12.3948 8.6187 12.8035 9.40919 12.8036C10.1997 12.8036 10.9075 12.3949 11.3029 11.7103L15.132 5.07778C15.5272 4.39327 15.5272 3.57584 15.132 2.89133C14.7368 2.20682 14.0288 1.79805 13.2384 1.79805V0.605942C14.4598 0.605942 15.5537 1.2374 16.1644 2.29528C16.7751 3.35315 16.7751 4.61607 16.1644 5.67383L12.3352 12.3062C11.8259 13.1883 10.9803 13.7724 10.0052 13.9427V17.1413C10.0052 20.2659 11.8498 22.808 14.1171 22.808C16.3843 22.808 18.2288 20.2659 18.2288 17.1413V13.3328C16.871 13.056 15.846 11.8524 15.846 10.4138C15.846 8.77117 17.1823 7.43481 18.8249 7.43481C20.4675 7.43481 21.8039 8.77117 21.8039 10.4138C21.8039 11.8523 20.7789 13.0558 19.421 13.3328V17.1413C19.421 20.9233 17.0417 24.0001 14.1171 24.0001C11.1926 24.0001 8.81325 20.9233 8.81325 17.1413V13.9427C7.83835 13.7724 6.99255 13.1883 6.4834 12.3062L2.65411 5.67383C2.04327 4.61607 2.04327 3.35304 2.65411 2.29528Z" fill="white"/>
</g>
<defs>
<clipPath id="clip0_278_432">
<rect width="24" height="24" fill="white" transform="matrix(-1 0 0 1 24 0)"/>
</clipPath>
</defs>
</svg>
