<svg width="30" height="30" viewBox="0 0 30 30" fill="none" xmlns="http://www.w3.org/2000/svg">
<rect width="30" height="30" rx="15" fill="#D4F3E1"/>
<path d="M22.768 9.38997C22.318 9.03997 21.718 9.08997 21.368 9.53997L13.968 18.49L8.468 14.49C8.018 14.19 7.418 14.24 7.068 14.69C6.768 15.14 6.818 15.74 7.268 16.09L13.518 20.64C13.5246 20.6398 13.5312 20.641 13.5373 20.6435C13.5434 20.646 13.549 20.6496 13.5537 20.6543C13.5583 20.659 13.562 20.6645 13.5645 20.6707C13.5669 20.6768 13.5681 20.6834 13.568 20.69C13.618 20.69 13.618 20.74 13.668 20.74C13.718 20.74 13.718 20.79 13.768 20.79C13.818 20.79 13.818 20.79 13.868 20.84H14.468C14.518 20.84 14.518 20.84 14.568 20.79C14.618 20.79 14.618 20.74 14.668 20.74C14.718 20.74 14.718 20.69 14.768 20.69C14.818 20.69 14.818 20.64 14.868 20.64C14.8746 20.6401 14.8812 20.6389 14.8873 20.6364C14.8934 20.634 14.899 20.6303 14.9037 20.6256C14.9083 20.621 14.912 20.6154 14.9145 20.6093C14.9169 20.6031 14.9181 20.5966 14.918 20.59L14.968 20.54L22.968 10.84C23.218 10.39 23.168 9.73997 22.768 9.38997Z" fill="#29C36A"/>
</svg>
