<svg width="23" height="24" viewBox="0 0 23 24" fill="none" xmlns="http://www.w3.org/2000/svg">
<path d="M4.50024 12.0002H0.500244M22.5002 12.0002H18.5002M6.55024 7.05017L3.72224 4.22217M19.2782 19.7782L16.4502 16.9502M6.55024 16.9502L3.72224 19.7782M19.2782 4.22217L16.4502 7.05017" stroke="#F7912C" stroke-miterlimit="10" stroke-linecap="round"/>
<path d="M11.5002 16C12.5611 16 13.5785 15.5786 14.3287 14.8284C15.0788 14.0783 15.5002 13.0609 15.5002 12C15.5002 10.9391 15.0788 9.92172 14.3287 9.17157C13.5785 8.42143 12.5611 8 11.5002 8C10.4394 8 9.42196 8.42143 8.67182 9.17157C7.92167 9.92172 7.50024 10.9391 7.50024 12C7.50024 13.0609 7.92167 14.0783 8.67182 14.8284C9.42196 15.5786 10.4394 16 11.5002 16Z" fill="#F7912C" stroke="#F7912C" stroke-miterlimit="10"/>
<path d="M11.5002 19V23M11.5002 1V5" stroke="#F7912C" stroke-miterlimit="10" stroke-linecap="round"/>
</svg>
