<svg width="99" height="99" viewBox="0 0 99 99" fill="none" xmlns="http://www.w3.org/2000/svg">
<g id="medical-cardiogram-svgrepo-com 1" clip-path="url(#clip0_278_120)">
<path id="Vector" d="M78.9689 67.2629C77.4871 67.2698 72.2484 66.6581 67.1753 65.8853C61.2224 64.9795 56.6704 63.9572 50.8506 62.2198C46.7524 60.9966 43.9996 60.0251 41.4204 58.8919C40.9005 58.6645 40.3984 58.4463 40.3083 58.4115C40.1642 58.3528 40.1748 58.302 40.4205 57.9153C41.0051 56.9947 40.9671 56.5303 39.7549 49.9558C38.6692 44.0673 38.7521 44.5906 38.9346 44.7667C39.0462 44.8351 40.0528 46.0618 41.2355 47.4611C44.6485 51.5112 44.9918 51.862 45.7753 52.1027C46.3144 52.2673 47.007 52.2268 47.6455 51.9885C48.1224 51.81 48.7757 51.1838 49.0336 50.6477C49.3217 50.0579 49.4414 48.6879 49.5998 44.1359C49.6337 43.1674 49.6816 42.3638 49.7062 42.3507C49.7062 42.3507 50.462 42.8093 51.3299 43.3994C54.6004 45.6208 58.2161 48.0369 58.8295 48.4117C59.8683 49.0486 60.7264 49.0773 61.7575 48.5149C62.5484 48.0865 63.0353 47.4135 63.1476 46.6065C63.2176 46.0876 62.8461 44.021 61.5829 37.9658C60.384 32.2181 60.017 30.2928 60.1339 30.3683C60.273 30.4599 62.6624 33.3149 66.8191 38.3606C70.6319 42.9895 73.4165 46.3311 74.2642 47.2946C74.7812 47.8842 74.929 48.0064 75.363 48.1855C75.6844 48.323 76.0517 48.3909 76.3987 48.3868C76.8918 48.3802 76.995 48.3479 77.66 47.9939C78.2866 47.6597 78.4364 47.5807 78.6837 47.2083C79.1699 46.5582 79.2246 46.2055 79.0807 44.5483C78.9833 43.4037 78.5636 39.5258 78.297 37.2815C78.2741 37.083 78.467 37.191 80.3636 38.5332C82.6405 40.132 83.494 40.6809 83.8631 40.7862C83.9947 40.8215 84.3609 40.8448 84.6731 40.8292C85.7458 40.7775 86.8296 39.9975 87.1479 39.0304C87.3082 38.5538 87.2508 36.253 86.9425 30.4339C86.8439 28.5675 86.7473 26.4208 86.7286 25.6632L86.695 24.2851L86.9582 24.4686C87.1004 24.566 88.3377 25.5773 89.7056 26.711C92.6737 29.1715 92.9835 29.3972 93.6174 29.5632L94.1081 29.6934L94.0633 30.0333C93.9763 30.7042 93.4016 33.473 93.0269 35.0255C92.5472 37.0184 90.9603 42.226 90.1259 44.5506C88.5582 48.9135 86.7919 53.1804 84.9024 57.1676C83.1352 60.8969 80.1122 66.5777 79.5895 67.1509C79.5192 67.1883 79.2628 67.2495 78.9689 67.2629ZM79.7611 31.3258C77.4086 29.6543 76.0892 28.78 75.7315 28.6566C75.3596 28.5234 74.5625 28.5413 74.0087 28.6871C73.3564 28.8612 72.7134 29.4743 72.296 30.3286C72.0814 30.7739 72.0893 31.4319 72.3556 34.0376C72.5556 35.9983 72.5727 36.4151 72.4513 36.3721C72.3403 36.3333 72.3095 36.2895 64.9683 27.3642C58.9459 20.0403 57.3072 18.0838 56.623 17.4034C56.1443 16.9283 55.6454 16.7543 54.8327 16.7798C54.3903 16.797 54.2457 16.8363 53.6472 17.1624C53.0459 17.4847 52.9142 17.5525 52.6505 17.9563C52.0515 18.7792 52.0432 18.9191 52.4775 21.2382C52.9815 23.9326 53.1222 24.6283 54.7125 32.3131C55.4549 35.8996 56.1115 39.0929 56.1716 39.4094L56.2813 39.9831L55.9891 39.8301C55.6185 39.6285 55.0735 39.2691 52.1722 37.3088C48.6942 34.9564 47.9764 34.5663 47.1132 34.5577C46.6732 34.551 46.5642 34.5865 45.9426 34.9173C45.1402 35.3482 44.9265 35.5786 44.6799 36.2817C44.4582 36.9114 44.3709 37.6156 44.2827 39.4294C44.1901 41.3253 44.1105 42.048 43.9981 42.0108C43.9082 41.9833 42.6918 40.532 41.2116 38.759C38.185 35.1436 36.2663 32.8959 35.812 32.4341C35.4368 32.0543 34.8033 31.8821 33.9293 31.9138C33.4365 31.9353 33.2505 31.9816 32.8324 32.2041C32.3972 32.4327 32.283 32.5718 31.9277 33.0168C31.2546 33.9394 31.2538 33.9097 31.7494 36.8147C32.5719 41.6416 34.232 50.859 34.8296 53.9159C34.9529 54.5577 35.0551 55.103 35.057 55.1208C35.057 55.1208 34.9827 55.2357 34.8712 55.295C34.4959 55.4947 33.7007 55.0638 31.2769 53.3573C27.7956 50.9066 24.7901 48.0506 22.9425 45.4361C22.3054 44.5359 20.3036 40.7747 19.9196 39.7592C18.6313 36.3489 18.2956 32.0336 19.021 28.2033C20.1006 22.5034 23.6716 17.233 28.6047 14.0596C30.532 12.8156 33.775 11.5411 36.2563 11.0453C38.6471 10.5675 41.7274 10.5964 44.5313 11.1238C45.9813 11.3965 48.0417 12.0398 49.2233 12.5901C50.2659 13.0759 50.7357 13.26 50.8184 13.216C50.8184 13.216 50.9246 12.8359 50.991 12.4093C51.8439 6.96918 54.1689 2.60127 58.1321 -1.00477C59.5262 -2.27353 60.0429 -2.61625 62.4489 -3.8968C64.7661 -5.12932 65.1195 -5.24292 66.9706 -5.7465C73.4079 -7.39296 79.8724 -6.18755 85.1805 -2.35064C86.5455 -1.3637 87.5731 -0.445436 88.6094 0.712719C92.5016 5.06233 94.6649 11.1148 94.9638 18.4688C95.0218 19.9633 94.9946 22.0246 94.8983 23.0864L94.8352 23.7597L94.5318 23.5148C94.3619 23.3794 92.7601 22.0594 90.9668 20.5788C87.5901 17.7932 85.654 16.2395 84.8615 15.6808C84.0407 15.1002 83.1561 15.1361 82.0637 15.7927C81.3989 16.2218 81.0428 16.5919 80.8573 17.1723C80.6923 17.6965 80.7615 19.5176 81.3065 28.7138C81.4304 30.803 81.5261 32.531 81.5195 32.5526C81.5195 32.5526 80.7266 32.0385 79.7747 31.3599L79.7611 31.3258Z" fill="white" fill-opacity="0.4"/>
</g>
<defs>
<clipPath id="clip0_278_120">
<rect width="93" height="93" fill="white" transform="translate(0 16.6941) rotate(-28.0232)"/>
</clipPath>
</defs>
</svg>
