<svg width="18" height="20" viewBox="0 0 18 20" fill="none" xmlns="http://www.w3.org/2000/svg">
<path d="M14.0978 6.11631C13.3424 5.52678 12.5785 5.32335 11.9027 5.32764C11.3858 5.32831 10.9236 5.43335 10.5146 5.52612C10.1052 5.62128 9.74771 5.70116 9.45127 5.69987C9.15537 5.7012 8.79802 5.62128 8.38849 5.52612C7.97943 5.43331 7.51724 5.32831 7.00052 5.32764C6.32463 5.32335 5.56068 5.52647 4.80525 6.11663C4.24431 6.54893 3.83709 7.11569 3.58064 7.76303C3.32318 8.411 3.21021 9.13756 3.2099 9.91901C3.21052 11.1159 3.47412 12.4472 3.93201 13.8608C4.40482 15.3192 4.81002 16.3916 5.10974 17.1714C5.2592 17.5607 5.3822 17.8771 5.4724 18.1271C5.56271 18.3755 5.61888 18.5611 5.63756 18.6645C5.71123 19.0641 5.89584 19.4039 6.1592 19.6397C6.42162 19.8755 6.75799 20.0007 7.09435 20.0001C7.44181 20.0004 7.7876 19.8686 8.06369 19.6258C8.34095 19.3831 8.54658 19.0327 8.64564 18.6086C8.67455 18.4841 8.69291 18.3533 8.71123 18.206C8.74256 17.9498 8.77033 17.6465 8.80998 17.3348C8.86795 16.8688 8.96076 16.3813 9.09896 16.0672C9.16584 15.9096 9.24228 15.8023 9.29943 15.7528C9.35974 15.7033 9.38068 15.6953 9.45134 15.6914C9.50685 15.693 9.52896 15.7013 9.56631 15.7237C9.62892 15.7601 9.73623 15.8899 9.82373 16.1131C9.95849 16.4437 10.0457 16.9371 10.1015 17.4015C10.1303 17.634 10.1527 17.8605 10.1752 18.064C10.1988 18.269 10.2201 18.4461 10.2576 18.6086C10.3568 19.0326 10.5618 19.3831 10.8392 19.6258C11.1153 19.8692 11.4616 20.0003 11.8089 20C12.1453 20.0006 12.4816 19.8755 12.744 19.6394C13.0076 19.4039 13.1917 19.064 13.2657 18.6644C13.2845 18.561 13.3406 18.3755 13.4308 18.1271C13.7025 17.3734 14.2628 16.0461 14.9712 13.8607C15.4293 12.4475 15.6927 11.1158 15.693 9.91897C15.693 9.13788 15.58 8.41096 15.3226 7.76299C15.0657 7.11569 14.6585 6.54866 14.0978 6.11631ZM14.0234 13.5536C13.5576 14.9899 13.1609 16.0399 12.8633 16.8144C12.7144 17.2021 12.5905 17.5205 12.4936 17.7886C12.3969 18.0581 12.3259 18.2744 12.2866 18.4809C12.245 18.6975 12.162 18.8224 12.0789 18.8973C11.9947 18.9723 11.9048 19.0027 11.8087 19.004C11.7095 19.0033 11.6016 18.9687 11.4961 18.8772C11.3917 18.7851 11.2871 18.6315 11.2274 18.3805C11.2141 18.3244 11.1967 18.2167 11.1807 18.0849C11.1523 17.8524 11.1237 17.5416 11.0815 17.2087C11.0156 16.7067 10.9254 16.1551 10.7193 15.6723C10.6141 15.4312 10.4779 15.2 10.269 15.0111C10.0636 14.8219 9.76564 14.6914 9.45123 14.6954C9.21326 14.694 8.98045 14.7661 8.79533 14.8873C8.46888 15.1033 8.28705 15.4187 8.15494 15.7417C7.96041 16.2305 7.87506 16.7837 7.81299 17.2798C7.78228 17.5271 7.75947 17.759 7.73771 17.9532C7.71638 18.1461 7.69396 18.3059 7.6756 18.3806C7.61615 18.6316 7.51127 18.7848 7.40689 18.8766C7.30092 18.9688 7.19357 19.0034 7.09431 19.0034C6.99791 19.0028 6.90838 18.9717 6.82416 18.8974C6.74111 18.8224 6.65802 18.6976 6.61642 18.4813C6.57713 18.2745 6.50611 18.0582 6.40951 17.7887C6.12017 16.9882 5.57904 15.7104 4.8797 13.5537C4.44322 12.2092 4.20564 10.968 4.20642 9.91913C4.20595 9.23381 4.30666 8.63241 4.5065 8.13135C4.70713 7.62971 5.00092 7.22542 5.41439 6.9051C6.01912 6.44272 6.50611 6.32846 7.00052 6.32417C7.37803 6.32381 7.76279 6.4044 8.16619 6.49756C8.56963 6.5887 8.99072 6.6944 9.45127 6.69604C9.91205 6.6944 10.3331 6.5887 10.7365 6.49756C11.1403 6.40444 11.525 6.32381 11.9027 6.32417C12.3966 6.32846 12.8834 6.44307 13.4886 6.9051C13.9021 7.22542 14.1959 7.62936 14.3965 8.13135C14.5963 8.63237 14.6967 9.23378 14.6967 9.91913C14.6975 10.9683 14.4598 12.2098 14.0234 13.5536Z" fill="white"/>
<path d="M17.0143 2.3295L15.3114 1.87833C15.2668 1.8684 15.2305 1.83274 15.2209 1.78782L14.7718 0.0850049C14.7598 0.0354736 14.7159 0.00012207 14.6648 0.00012207C14.6136 0.00012207 14.5696 0.0354736 14.5577 0.0850049L14.1089 1.78782C14.0987 1.83274 14.0627 1.8684 14.0181 1.87833L12.3152 2.3295C12.2654 2.33942 12.23 2.38364 12.23 2.43485C12.23 2.48606 12.2654 2.53028 12.3152 2.53985L14.0181 2.99133C14.0627 3.00059 14.0986 3.03692 14.1089 3.08184L14.5577 4.78438C14.5696 4.83422 14.6136 4.86958 14.6648 4.86958C14.7159 4.86958 14.7598 4.83422 14.7718 4.78438L15.2209 3.08184C15.2305 3.03692 15.2668 3.00059 15.3114 2.99133L17.0143 2.53985C17.0641 2.53028 17.0995 2.48602 17.0995 2.43485C17.0995 2.38364 17.0641 2.33942 17.0143 2.3295Z" fill="white"/>
<path d="M9.49692 9.99039L7.94188 9.57824C7.9011 9.56933 7.86805 9.5366 7.8593 9.49566L7.44911 7.94078C7.43821 7.89554 7.39809 7.86316 7.35137 7.86316C7.30461 7.86316 7.2645 7.89554 7.2536 7.94078L6.84375 9.49566C6.83454 9.5366 6.80165 9.56933 6.76086 9.57824L5.20579 9.99039C5.16024 9.99933 5.12805 10.0399 5.12805 10.0865C5.12805 10.1334 5.16024 10.1737 5.20579 10.1826L6.76086 10.5948C6.80165 10.6034 6.83454 10.6364 6.84375 10.6773L7.2536 12.2322C7.2645 12.2778 7.30461 12.3098 7.35137 12.3098C7.39809 12.3098 7.43821 12.2778 7.44911 12.2322L7.8593 10.6773C7.86805 10.6364 7.9011 10.6034 7.94188 10.5948L9.49692 10.1826C9.5425 10.1737 9.57469 10.1334 9.57469 10.0865C9.57469 10.0399 9.5425 9.99933 9.49692 9.99039Z" fill="white"/>
<path d="M3.28639 5.10638L4.60499 4.75696C4.64362 4.74935 4.67085 4.71536 4.67085 4.6754C4.67085 4.6361 4.64358 4.60142 4.60499 4.59384L3.28639 4.24442C3.2519 4.23681 3.22382 4.20907 3.21639 4.17442L2.86862 2.85599C2.8594 2.81767 2.82538 2.79028 2.78573 2.79028C2.74612 2.79028 2.71206 2.81767 2.70284 2.85599L2.35538 4.17442C2.34745 4.20911 2.31956 4.23685 2.28503 4.24442L0.966433 4.59384C0.927761 4.60142 0.900574 4.6361 0.900574 4.6754C0.900574 4.7154 0.9278 4.74938 0.966433 4.75696L2.28503 5.10638C2.31956 5.11364 2.34745 5.14173 2.35538 5.17638L2.70284 6.49481C2.71206 6.53345 2.74612 6.56052 2.78573 6.56052C2.82538 6.56052 2.8594 6.53341 2.86862 6.49481L3.21639 5.17638C3.22382 5.14173 3.2519 5.11364 3.28639 5.10638Z" fill="white"/>
</svg>
