<svg width="18" height="18" viewBox="0 0 18 18" fill="none" xmlns="http://www.w3.org/2000/svg">
<g clip-path="url(#clip0_2020_320)">
<path d="M9.45293 1.803C8.95504 1.803 8.55143 1.39939 8.55143 0.901502C8.55143 0.403616 8.95504 0 9.45293 0C9.95081 0 10.3544 0.403616 10.3544 0.901502C10.3544 1.39939 9.95081 1.803 9.45293 1.803Z" fill="white"/>
<path d="M4.67656 1.803C4.17868 1.803 3.77506 1.39939 3.77506 0.901502C3.77506 0.403616 4.17868 0 4.67656 0C5.17445 0 5.57806 0.403616 5.57806 0.901502C5.57806 1.39939 5.17445 1.803 4.67656 1.803Z" fill="white"/>
<path d="M1.99057 1.72147C2.4486 0.928152 3.26892 0.454557 4.185 0.454557V1.34864C3.59213 1.34864 3.06132 1.65513 2.76484 2.16851C2.46836 2.68198 2.46836 3.29496 2.76475 3.80843L5.63672 8.78274C5.9331 9.29613 6.46401 9.60262 7.05688 9.60271C7.64974 9.60271 8.18065 9.29621 8.47712 8.78274L11.349 3.80834C11.6454 3.29496 11.6454 2.68189 11.349 2.16851C11.0526 1.65513 10.5216 1.34855 9.92875 1.34855V0.454468C10.8448 0.454468 11.6652 0.928062 12.1233 1.72147C12.5813 2.51488 12.5813 3.46207 12.1233 4.25539L9.2514 9.2297C8.86945 9.89123 8.23519 10.3293 7.50392 10.457V12.856C7.50392 15.1995 8.88733 17.106 10.5878 17.106C12.2882 17.106 13.6716 15.1995 13.6716 12.856V9.99959C12.6532 9.79198 11.8845 8.88932 11.8845 7.81034C11.8845 6.57839 12.8867 5.57612 14.1187 5.57612C15.3506 5.57612 16.3529 6.57839 16.3529 7.81034C16.3529 8.88923 15.5842 9.79189 14.5657 9.99959V12.856C14.5657 15.6925 12.7812 18.0001 10.5878 18.0001C8.39442 18.0001 6.60993 15.6925 6.60993 12.856V10.457C5.87875 10.3293 5.24439 9.89123 4.86253 9.2297L1.99057 4.25539C1.53244 3.46207 1.53244 2.51479 1.99057 1.72147Z" fill="white"/>
</g>
<defs>
<clipPath id="clip0_2020_320">
<rect width="18" height="18" fill="white" transform="matrix(-1 0 0 1 18 0)"/>
</clipPath>
</defs>
</svg>
