<svg width="16" height="18" viewBox="0 0 16 18" fill="none" xmlns="http://www.w3.org/2000/svg">
<path d="M15.2093 9.51053L14.021 7.11205C13.8029 3.13046 11.5247 0 7.89943 0C1.84695 0 0.683716 3.23334 0.683716 6.53991C0.683716 8.17297 1.37992 9.68213 2.5071 10.7816L1.00546 17.2888C0.965663 17.4612 1.00668 17.6424 1.11681 17.7809C1.22693 17.9194 1.39424 18 1.57119 18H4.33867L5.58851 12.4907C5.82938 11.429 6.75799 10.6875 7.84671 10.6875H13.7434C13.7435 10.6868 13.7436 10.686 13.7438 10.6853H14.6157C14.8705 10.6853 15.1053 10.5338 15.2287 10.2896C15.3521 10.0453 15.3447 9.74706 15.2093 9.51053ZM13.7438 9.76015C13.7224 9.76015 13.7011 9.76088 13.6801 9.76233H7.84671C6.323 9.76233 5.02339 10.8001 4.68627 12.2861L3.59989 17.0749H2.00428L3.40856 10.9897C3.48118 10.6748 3.38437 10.3449 3.15308 10.1193C2.15727 9.14805 1.60886 7.87686 1.60886 6.53997C1.60886 4.78592 1.97374 3.50765 2.72428 2.63222C3.17755 2.10349 3.77126 1.70852 4.5393 1.42473C5.43636 1.09324 6.56688 0.925205 7.89949 0.925205C9.34462 0.925205 10.5975 1.52148 11.5226 2.64966C12.4399 3.7682 12.9992 5.37099 13.0973 7.16277C13.1042 7.288 13.1364 7.4105 13.1921 7.52285L14.3006 9.76021H13.7438V9.76015Z" fill="white"/>
</svg>
