<svg width="24" height="24" viewBox="0 0 24 24" fill="none" xmlns="http://www.w3.org/2000/svg">
<g id="My Health icon">
<path id="secondary" d="M20.71 14.69L19.31 13.29C19.1231 13.1068 18.8718 13.0042 18.61 13.0042C18.3482 13.0042 18.0969 13.1068 17.91 13.29L13 18.2V21H15.8L20.71 16.09C20.8932 15.9031 20.9959 15.6518 20.9959 15.39C20.9959 15.1283 20.8932 14.8769 20.71 14.69Z" stroke="#999A9D" stroke-width="1.5" stroke-linecap="round" stroke-linejoin="round"/>
<path id="primary" d="M11 11C8.79086 11 7 9.20914 7 7C7 4.79086 8.79086 3 11 3C13.2091 3 15 4.79086 15 7C15 9.20914 13.2091 11 11 11Z" stroke="#999A9D" stroke-width="1.5" stroke-linecap="round" stroke-linejoin="round"/>
<path id="primary_2" d="M9 21H4C3.73478 21 3.48043 20.8946 3.29289 20.7071C3.10536 20.5196 3 20.2652 3 20C3 18.6739 3.52678 17.4021 4.46447 16.4645C5.40215 15.5268 6.67392 15 8 15H11" stroke="#999A9D" stroke-width="1.5" stroke-linecap="round" stroke-linejoin="round"/>
</g>
</svg>
