<svg width="20" height="20" viewBox="0 0 20 20" fill="none" xmlns="http://www.w3.org/2000/svg">
<g id="new-user-svgrepo-com 1" clip-path="url(#clip0_278_1068)">
<g id="Group">
<g id="Group_2">
<path id="Vector" d="M8.79973 10.1372C11.616 10.137 12.6293 7.31722 12.8945 5.00095C13.2213 2.14755 11.872 0 8.79973 0C5.7279 0 4.37786 2.14739 4.70489 5.00095C4.97041 7.31722 5.98342 10.1374 8.79973 10.1372Z" fill="white"/>
<path id="Vector_2" d="M14.9577 11.3109C15.0483 11.3109 15.1384 11.3137 15.2278 11.3186C15.0938 11.1274 14.9386 10.9588 14.7571 10.8233C14.216 10.4194 13.5151 10.2869 12.8955 10.0434C12.5939 9.92493 12.3239 9.80725 12.0703 9.67326C11.2147 10.6117 10.0988 11.1025 8.79939 11.1027C7.50041 11.1027 6.38465 10.6118 5.52907 9.67326C5.27554 9.80728 5.00541 9.92493 4.70387 10.0434C4.08429 10.2869 3.38348 10.4194 2.8423 10.8233C1.90642 11.5218 1.66456 13.0932 1.47452 14.1651C1.31769 15.0499 1.21233 15.9529 1.18158 16.8517C1.15776 17.5478 1.50148 17.6455 2.0839 17.8556C2.81315 18.1186 3.56613 18.3139 4.32416 18.4739C5.78812 18.7831 7.29714 19.0206 8.79965 19.0313C9.52769 19.0261 10.2572 18.9673 10.9824 18.8733C10.4454 18.0953 10.1305 17.1529 10.1305 16.1382C10.1305 13.4764 12.296 11.3109 14.9577 11.3109Z" fill="white"/>
<path id="Vector_3" d="M14.9577 12.2764C12.825 12.2764 11.0959 14.0055 11.0959 16.1382C11.0959 18.2709 12.825 20 14.9577 20C17.0905 20 18.8196 18.2709 18.8196 16.1382C18.8195 14.0054 17.0905 12.2764 14.9577 12.2764ZM16.6473 16.8007H15.6203V17.8277C15.6203 18.1936 15.3237 18.4903 14.9578 18.4903C14.5918 18.4903 14.2952 18.1936 14.2952 17.8277V16.8007H13.2682C12.9023 16.8007 12.6056 16.5041 12.6056 16.1381C12.6056 15.7722 12.9023 15.4755 13.2682 15.4755H14.2952V14.4486C14.2952 14.0826 14.5918 13.786 14.9578 13.786C15.3237 13.786 15.6203 14.0826 15.6203 14.4486V15.4755H16.6473C17.0132 15.4755 17.3099 15.7722 17.3099 16.1381C17.3099 16.5041 17.0133 16.8007 16.6473 16.8007Z" fill="white"/>
</g>
</g>
</g>
<defs>
<clipPath id="clip0_278_1068">
<rect width="20" height="20" fill="white"/>
</clipPath>
</defs>
</svg>
