<svg width="14" height="20" viewBox="0 0 14 20" fill="none" xmlns="http://www.w3.org/2000/svg">
<path d="M13.5724 2.06226L12.4473 0.473898C12.0893 -0.031698 11.3866 -0.151662 10.8809 0.206457L9.92895 0.880739C8.69221 1.75667 7.2357 2.20389 5.71504 2.175C5.21293 2.16673 4.72873 2.3142 4.31717 2.60574L4.3171 2.60581C3.80625 2.96767 3.46685 3.50688 3.36146 4.12391C3.33231 4.29443 3.32272 4.46522 3.33073 4.63397C1.55622 5.024 0.221313 6.64703 0.221313 8.58497C0.221313 9.33214 0.420466 10.0321 0.765978 10.6332C0.426178 11.0399 0.221313 11.5631 0.221313 12.1333C0.221313 12.6375 0.379099 13.118 0.677729 13.5231C1.56732 14.7291 2.05722 16.216 2.05722 17.7098V18.8765C2.05722 19.4961 2.5613 20.0001 3.18089 20.0001H5.12737C5.74702 20.0001 6.25104 19.4961 6.25104 18.8765V17.7097C6.25104 16.1944 6.72807 14.7466 7.63053 13.5229C7.92916 13.1179 8.08694 12.6374 8.08694 12.1332C8.08694 11.563 7.88201 11.0399 7.54228 10.6331C7.75837 10.2572 7.91754 9.84299 8.00598 9.40226C8.31039 9.33621 8.60153 9.20988 8.86339 9.02438C9.27496 8.73291 9.57589 8.32633 9.73361 7.84871C10.2038 6.42562 11.134 5.16642 12.3529 4.3031L13.305 3.62882C13.8106 3.2705 13.9305 2.56779 13.5724 2.06226ZM3.58543 5.58659C3.63619 5.68515 3.69397 5.78095 3.75917 5.87301C4.10206 6.35707 4.61698 6.68794 5.18574 6.80987C5.11213 7.38671 5.25324 7.98246 5.59606 8.46645C5.93442 8.94414 6.42787 9.27186 6.99505 9.39852C6.93694 9.61619 6.85651 9.82434 6.75585 10.0197C6.44914 9.87221 6.10566 9.78941 5.74315 9.78941C5.15002 9.78941 4.58231 10.0185 4.15413 10.4121C3.72595 10.0185 3.15817 9.78941 2.56505 9.78941C2.20253 9.78941 1.85905 9.87221 1.55241 10.0197C1.33179 9.59163 1.20624 9.10324 1.20624 8.58484C1.20624 7.10154 2.23122 5.86217 3.58543 5.58659ZM6.83779 12.9384C5.80959 14.3325 5.26605 15.9824 5.26605 17.7097V18.8764C5.26605 18.9529 5.2038 19.0152 5.1273 19.0152H3.18089C3.10439 19.0152 3.04215 18.9529 3.04215 18.8764V17.7097C3.04215 16.007 2.48395 14.3125 1.4704 12.9384C1.29758 12.704 1.20624 12.4255 1.20624 12.1332C1.20624 11.3839 1.81578 10.7744 2.56505 10.7744C3.0472 10.7744 3.48333 11.0219 3.73173 11.4364C3.82063 11.5849 3.98111 11.6758 4.15419 11.6758C4.32728 11.6758 4.48769 11.5849 4.57666 11.4364C4.825 11.0219 5.26112 10.7744 5.74328 10.7744C6.49254 10.7744 7.10208 11.3839 7.10208 12.1332C7.10202 12.4255 7.01061 12.7039 6.83779 12.9384ZM12.7356 2.82505L11.7836 3.49933C10.3942 4.48341 9.33399 5.91831 8.79832 7.53977C8.70705 7.81614 8.53266 8.0516 8.29404 8.22061C7.99784 8.43047 7.63775 8.51228 7.27989 8.45122C6.9221 8.39015 6.60955 8.19337 6.39976 7.89716C6.12116 7.50372 6.07099 7.00475 6.26568 6.56252C6.33548 6.40415 6.31683 6.22075 6.21683 6.07951C6.12411 5.94858 5.97395 5.87169 5.81504 5.87169C5.80257 5.87169 5.78996 5.87215 5.77735 5.87307C5.29599 5.91017 4.84161 5.6971 4.56294 5.30372C4.12983 4.69228 4.27495 3.84248 4.88639 3.40938C5.12507 3.24036 5.40249 3.1531 5.69613 3.15966C7.4275 3.19348 9.08861 2.68263 10.4982 1.68431L11.4501 1.01009C11.5127 0.965836 11.5995 0.980742 11.6436 1.04305L12.7687 2.63141C12.8129 2.69399 12.798 2.78079 12.7356 2.82505Z" fill="white"/>
<path d="M5.98813 3.50555C5.35068 3.50555 4.83215 4.02415 4.83215 4.6616C4.83215 4.93363 5.05258 5.15406 5.32462 5.15406C5.59665 5.15406 5.81708 4.93363 5.81708 4.6616C5.81708 4.56717 5.89384 4.49048 5.98813 4.49048C6.26017 4.49048 6.48059 4.27005 6.48059 3.99802C6.48059 3.72598 6.2601 3.50555 5.98813 3.50555Z" fill="white"/>
</svg>
