<svg width="30" height="30" viewBox="0 0 30 30" fill="none" xmlns="http://www.w3.org/2000/svg">
<rect width="30" height="30" rx="15" fill="#FF0000" fill-opacity="0.2"/>
<path d="M16.4009 14.9999L21.3009 10.0999C21.4835 9.91363 21.5851 9.66282 21.5838 9.40199C21.5825 9.14116 21.4783 8.89139 21.2939 8.70696C21.1094 8.52252 20.8597 8.41832 20.5988 8.417C20.338 8.41569 20.0872 8.51736 19.9009 8.69992L15.0009 13.5999L10.1009 8.69992C9.91461 8.51736 9.6638 8.41569 9.40297 8.417C9.14214 8.41832 8.89237 8.52252 8.70793 8.70696C8.5235 8.89139 8.4193 9.14116 8.41798 9.40199C8.41666 9.66282 8.51833 9.91363 8.7009 10.0999L13.6009 14.9999L8.7009 19.8999C8.51833 20.0862 8.41666 20.337 8.41798 20.5979C8.4193 20.8587 8.5235 21.1084 8.70793 21.2929C8.89237 21.4773 9.14214 21.5815 9.40297 21.5828C9.6638 21.5842 9.91461 21.4825 10.1009 21.2999L15.0009 16.3999L19.9009 21.2999C20.0872 21.4825 20.338 21.5842 20.5988 21.5828C20.8597 21.5815 21.1094 21.4773 21.2939 21.2929C21.4783 21.1084 21.5825 20.8587 21.5838 20.5979C21.5851 20.337 21.4835 20.0862 21.3009 19.8999L16.4009 14.9999Z" fill="#FF0000"/>
</svg>
