<svg width="96" height="96" viewBox="0 0 96 96" fill="none" xmlns="http://www.w3.org/2000/svg">
<g clip-path="url(#clip0_2020_402)">
<g filter="url(#filter0_d_2020_402)">
<path d="M48.5127 54.8843C48.3713 56.55 49.5019 65.3667 50.0854 68.8238C50.3631 70.4615 51.1248 73.13 50.8508 74.5467C50.4595 76.5214 50.3464 79.0767 50.5618 80.5647C50.6977 81.4683 51.1253 85.6358 50.5134 87.1601C50.1933 87.9594 49.6066 92.0558 49.6066 92.0558C48.0781 95.9149 48.9408 95.725 48.9408 95.725C49.414 96.3057 50.2245 95.7706 50.2245 95.7706C50.8419 96.1643 51.2695 95.6771 51.2695 95.6771C51.7995 96.1159 52.4174 95.6231 52.4174 95.6231C53.0832 95.9688 53.7006 95.3314 53.7006 95.3314C54.0831 95.524 54.1766 95.2807 54.1766 95.2807C55.324 95.2072 53.5364 91.5352 53.5364 91.5352C53.1083 88.2372 53.9612 86.4017 53.9612 86.4017C56.7547 78.1173 56.8966 75.9189 55.78 72.7968C55.4654 71.8956 55.3859 71.5387 55.5306 71.1474C55.8651 70.2443 55.6213 66.6118 56.0294 65.1694C56.8166 62.3875 57.5932 55.3324 57.998 52.0405C58.5419 47.6064 56.0712 41.661 56.0712 41.661C55.5301 39.2415 56.3234 30.6212 56.3234 30.6212C57.4313 32.3451 57.3889 35.388 57.3889 35.388C57.213 38.5794 59.967 43.457 59.967 43.457C61.2903 45.4726 61.7914 47.3849 61.7914 47.5268C61.7914 48.1075 61.6644 49.5131 61.6644 49.5131L61.7151 50.7373C61.7379 51.049 61.9133 52.1224 61.885 52.6412C61.6784 55.834 62.1855 55.2333 62.1855 55.2333C62.6136 55.2333 63.084 52.664 63.084 52.664C63.084 53.3266 62.9221 55.3101 63.2794 56.0582C63.707 56.9507 64.0215 55.9052 64.0271 55.6953C64.1402 51.6301 64.3844 52.6952 64.3844 52.6952C64.6222 55.9931 64.9144 56.738 65.4383 56.4803C65.8352 56.2909 65.4723 52.5226 65.4723 52.5226C66.1521 54.761 66.6676 55.1174 66.6676 55.1174C67.7894 55.9052 67.0957 53.7295 66.9398 53.2987C66.1097 51.0095 66.0841 50.2162 66.0841 50.2162C67.1212 52.2732 67.9029 52.1969 67.9029 52.1969C68.9144 51.874 67.0189 48.9613 65.9082 47.5659C65.3415 46.8549 64.6106 45.903 64.3984 45.3377C64.0527 44.3801 63.7917 41.3018 63.7917 41.3018C63.687 37.6693 62.789 36.0915 62.789 36.0915C61.2536 33.6339 60.9646 29.0495 60.9646 29.0495L60.8967 21.3095C60.3584 16.0299 56.4681 15.9918 56.4681 15.9918C52.536 15.4065 51.9888 14.1362 51.9888 14.1362C51.156 12.9377 51.632 10.6401 51.632 10.6401C52.3229 10.078 52.5895 8.58587 52.5895 8.58587C53.7369 7.70602 53.6806 6.41858 53.1507 6.43254C52.7254 6.44371 52.8217 6.09149 52.8217 6.09149C53.5392 0.29592 48.3941 0 48.3941 0H47.6087C47.6087 0 42.4612 0.29592 43.1778 6.09009C43.1778 6.09009 43.2741 6.44278 42.8451 6.43114C42.3165 6.41719 42.2672 7.70462 43.4104 8.58447C43.4104 8.58447 43.6766 10.0762 44.368 10.6387C44.368 10.6387 44.844 12.9363 44.0111 14.1348C44.0111 14.1348 43.4658 15.4051 39.5318 15.9904C39.5318 15.9904 35.6351 16.0285 35.1051 21.3081L35.0316 29.0481C35.0316 29.0481 34.7482 33.6325 33.2068 36.0902C33.2068 36.0902 32.313 37.6684 32.2097 41.3004C32.2097 41.3004 31.9477 44.3787 31.6034 45.3363C31.3936 45.8988 30.6631 46.8508 30.0917 47.5645C28.9713 48.9571 27.0883 51.8637 28.0956 52.1955C28.0956 52.1955 28.8815 52.2718 29.9144 50.2148C29.9144 50.2148 29.893 51.0025 29.0643 53.2973C28.9015 53.7225 28.2087 55.8982 29.331 55.116C29.331 55.116 29.8507 54.7592 30.5263 52.5212C30.5263 52.5212 30.1638 56.2895 30.5672 56.4789C31.0944 56.7371 31.3819 55.9917 31.6197 52.6938C31.6197 52.6938 31.8635 51.6287 31.9766 55.6939C31.9821 55.9038 32.2897 56.9493 32.7191 56.0568C33.0816 55.3087 32.9188 53.3284 32.9188 52.6626C32.9188 52.6626 33.3836 55.2319 33.8181 55.2319C33.8181 55.2319 34.3295 55.8326 34.1196 52.6398C34.0857 52.1182 34.2685 51.0476 34.2913 50.7359L34.3407 49.5117C34.3407 49.5117 34.2132 48.1093 34.2132 47.5254C34.2132 47.3807 34.7147 45.4712 36.0375 43.4556C36.0375 43.4556 38.7888 38.5757 38.6115 35.3866C38.6115 35.3866 38.5733 32.3437 39.6812 30.6198C39.6812 30.6198 40.4675 39.2397 39.9348 41.6596C39.9348 41.6596 37.4599 47.605 38.0057 52.0391C38.4077 55.3398 39.1829 62.3856 39.972 65.168C40.3842 66.6076 40.1404 70.2391 40.4708 71.146C40.6197 71.5401 40.5415 71.903 40.2214 72.7954C39.1107 75.9175 39.2522 78.1164 42.0457 86.4003C42.0457 86.4003 42.9056 88.2358 42.471 91.5338C42.471 91.5338 40.6862 95.2058 41.8294 95.2793C41.8294 95.2793 41.9187 95.5226 42.3054 95.33C42.3054 95.33 42.9228 95.9674 43.59 95.6217C43.59 95.6217 44.2079 96.1149 44.736 95.6757C44.736 95.6757 45.1594 96.1629 45.7768 95.7692C45.7768 95.7692 46.5874 96.3159 47.0689 95.7236C47.0689 95.7236 47.9246 95.9135 46.4013 92.0544C46.4013 92.0544 45.8178 87.9632 45.4963 87.1587C44.883 85.6349 45.3162 81.4585 45.447 80.5633C45.6577 79.067 45.5447 76.5177 45.1594 74.5453C44.8775 73.1318 45.641 70.4629 45.9229 68.8224C46.5022 65.3686 47.6375 56.5514 47.4956 54.8829L47.9646 55.0476C48.3005 55.0486 48.5127 54.8843 48.5127 54.8843Z" fill="#212529"/>
</g>
</g>
<defs>
<filter id="filter0_d_2020_402" x="23.8088" y="0" width="48.3817" height="103.999" filterUnits="userSpaceOnUse" color-interpolation-filters="sRGB">
<feFlood flood-opacity="0" result="BackgroundImageFix"/>
<feColorMatrix in="SourceAlpha" type="matrix" values="0 0 0 0 0 0 0 0 0 0 0 0 0 0 0 0 0 0 127 0" result="hardAlpha"/>
<feOffset dy="4"/>
<feGaussianBlur stdDeviation="2"/>
<feComposite in2="hardAlpha" operator="out"/>
<feColorMatrix type="matrix" values="0 0 0 0 0 0 0 0 0 0 0 0 0 0 0 0 0 0 0.25 0"/>
<feBlend mode="normal" in2="BackgroundImageFix" result="effect1_dropShadow_2020_402"/>
<feBlend mode="normal" in="SourceGraphic" in2="effect1_dropShadow_2020_402" result="shape"/>
</filter>
<clipPath id="clip0_2020_402">
<rect width="96" height="96" fill="white"/>
</clipPath>
</defs>
</svg>
